<mxfile host="app.diagrams.net" agent="Mozilla/5.0 (Windows NT 10.0; Win64; x64) AppleWebKit/537.36 (KHTML, like Gecko) Chrome/130.0.0.0 Safari/537.36" version="24.8.3">
  <diagram name="第 1 页" id="LrNbNjXsbrJ-yaIS4OFu">
    <mxGraphModel dx="1221" dy="652" grid="1" gridSize="10" guides="1" tooltips="1" connect="1" arrows="1" fold="1" page="1" pageScale="1" pageWidth="827" pageHeight="1169" math="0" shadow="0">
      <root>
        <mxCell id="0" />
        <mxCell id="1" parent="0" />
        <mxCell id="ejNQdpF5UHjqqk7aUhIy-28" value="" style="edgeStyle=orthogonalEdgeStyle;rounded=0;orthogonalLoop=1;jettySize=auto;html=1;" edge="1" parent="1" source="ejNQdpF5UHjqqk7aUhIy-5" target="ejNQdpF5UHjqqk7aUhIy-12">
          <mxGeometry relative="1" as="geometry" />
        </mxCell>
        <mxCell id="ejNQdpF5UHjqqk7aUhIy-5" value="" style="shape=cube;whiteSpace=wrap;html=1;boundedLbl=1;backgroundOutline=1;darkOpacity=0.05;darkOpacity2=0.1;fillColor=#d5e8d4;gradientColor=#97d077;strokeColor=#82b366;" vertex="1" parent="1">
          <mxGeometry x="30" y="205" width="180" height="190" as="geometry" />
        </mxCell>
        <mxCell id="ejNQdpF5UHjqqk7aUhIy-7" value="S=2&lt;div&gt;7x 7 x 16&lt;/div&gt;" style="text;html=1;align=center;verticalAlign=middle;resizable=0;points=[];autosize=1;strokeColor=none;fillColor=none;" vertex="1" parent="1">
          <mxGeometry x="260" y="345" width="70" height="40" as="geometry" />
        </mxCell>
        <mxCell id="ejNQdpF5UHjqqk7aUhIy-8" value="Image" style="text;html=1;align=center;verticalAlign=middle;resizable=0;points=[];autosize=1;strokeColor=none;fillColor=none;" vertex="1" parent="1">
          <mxGeometry x="90" y="395" width="60" height="30" as="geometry" />
        </mxCell>
        <mxCell id="ejNQdpF5UHjqqk7aUhIy-29" value="" style="edgeStyle=orthogonalEdgeStyle;rounded=0;orthogonalLoop=1;jettySize=auto;html=1;" edge="1" parent="1" source="ejNQdpF5UHjqqk7aUhIy-12" target="ejNQdpF5UHjqqk7aUhIy-14">
          <mxGeometry relative="1" as="geometry" />
        </mxCell>
        <mxCell id="ejNQdpF5UHjqqk7aUhIy-12" value="" style="shape=cube;whiteSpace=wrap;html=1;boundedLbl=1;backgroundOutline=1;darkOpacity=0.05;darkOpacity2=0.1;fillColor=#e6d0de;gradientColor=#d5739d;strokeColor=#996185;" vertex="1" parent="1">
          <mxGeometry x="240" y="255" width="90" height="90" as="geometry" />
        </mxCell>
        <mxCell id="ejNQdpF5UHjqqk7aUhIy-31" value="" style="edgeStyle=orthogonalEdgeStyle;rounded=0;orthogonalLoop=1;jettySize=auto;html=1;" edge="1" parent="1" source="ejNQdpF5UHjqqk7aUhIy-14" target="ejNQdpF5UHjqqk7aUhIy-20">
          <mxGeometry relative="1" as="geometry" />
        </mxCell>
        <mxCell id="ejNQdpF5UHjqqk7aUhIy-14" value="" style="shape=cube;whiteSpace=wrap;html=1;boundedLbl=1;backgroundOutline=1;darkOpacity=0.05;darkOpacity2=0.1;fillColor=#ffff88;strokeColor=#36393d;" vertex="1" parent="1">
          <mxGeometry x="360" y="270" width="60" height="60" as="geometry" />
        </mxCell>
        <mxCell id="ejNQdpF5UHjqqk7aUhIy-18" value="&lt;div&gt;S=1&lt;/div&gt;3 x 3 x16&lt;div&gt;pooling&lt;/div&gt;" style="text;html=1;align=center;verticalAlign=middle;resizable=0;points=[];autosize=1;strokeColor=none;fillColor=none;" vertex="1" parent="1">
          <mxGeometry x="360" y="330" width="70" height="60" as="geometry" />
        </mxCell>
        <mxCell id="ejNQdpF5UHjqqk7aUhIy-25" value="" style="edgeStyle=orthogonalEdgeStyle;rounded=0;orthogonalLoop=1;jettySize=auto;html=1;" edge="1" parent="1" source="ejNQdpF5UHjqqk7aUhIy-20" target="ejNQdpF5UHjqqk7aUhIy-22">
          <mxGeometry relative="1" as="geometry" />
        </mxCell>
        <mxCell id="ejNQdpF5UHjqqk7aUhIy-20" value="" style="shape=cube;whiteSpace=wrap;html=1;boundedLbl=1;backgroundOutline=1;darkOpacity=0.05;darkOpacity2=0.1;fillColor=#e6d0de;strokeColor=#996185;gradientColor=#d5739d;" vertex="1" parent="1">
          <mxGeometry x="450" y="260" width="80" height="80" as="geometry" />
        </mxCell>
        <mxCell id="ejNQdpF5UHjqqk7aUhIy-21" value="S=2&lt;div&gt;5 x 5 x 32&lt;/div&gt;" style="text;html=1;align=center;verticalAlign=middle;resizable=0;points=[];autosize=1;strokeColor=none;fillColor=none;" vertex="1" parent="1">
          <mxGeometry x="460" y="340" width="80" height="40" as="geometry" />
        </mxCell>
        <mxCell id="ejNQdpF5UHjqqk7aUhIy-22" value="" style="shape=cube;whiteSpace=wrap;html=1;boundedLbl=1;backgroundOutline=1;darkOpacity=0.05;darkOpacity2=0.1;fillColor=#ffff88;strokeColor=#36393d;" vertex="1" parent="1">
          <mxGeometry x="560" y="270" width="60" height="60" as="geometry" />
        </mxCell>
        <mxCell id="ejNQdpF5UHjqqk7aUhIy-23" value="&lt;div&gt;S=1&lt;/div&gt;3 x 3 x32&lt;div&gt;pooling&lt;/div&gt;" style="text;html=1;align=center;verticalAlign=middle;resizable=0;points=[];autosize=1;strokeColor=none;fillColor=none;" vertex="1" parent="1">
          <mxGeometry x="560" y="330" width="70" height="60" as="geometry" />
        </mxCell>
        <mxCell id="ejNQdpF5UHjqqk7aUhIy-32" value="ReLu" style="text;html=1;align=center;verticalAlign=middle;resizable=0;points=[];autosize=1;strokeColor=none;fillColor=none;" vertex="1" parent="1">
          <mxGeometry x="530" y="310" width="50" height="30" as="geometry" />
        </mxCell>
        <mxCell id="ejNQdpF5UHjqqk7aUhIy-33" value="ReLu" style="text;html=1;align=center;verticalAlign=middle;resizable=0;points=[];autosize=1;strokeColor=none;fillColor=none;" vertex="1" parent="1">
          <mxGeometry x="325" y="310" width="50" height="30" as="geometry" />
        </mxCell>
        <mxCell id="ejNQdpF5UHjqqk7aUhIy-34" value="" style="curved=1;endArrow=classic;html=1;rounded=0;exitX=0;exitY=0;exitDx=60;exitDy=40;exitPerimeter=0;" edge="1" parent="1" source="ejNQdpF5UHjqqk7aUhIy-22">
          <mxGeometry width="50" height="50" relative="1" as="geometry">
            <mxPoint x="270" y="360" as="sourcePoint" />
            <mxPoint x="120" y="500" as="targetPoint" />
            <Array as="points">
              <mxPoint x="640" y="370" />
              <mxPoint x="590" y="430" />
              <mxPoint x="500" y="420" />
              <mxPoint x="410" y="410" />
              <mxPoint x="310" y="410" />
              <mxPoint x="240" y="410" />
              <mxPoint x="170" y="430" />
            </Array>
          </mxGeometry>
        </mxCell>
        <mxCell id="ejNQdpF5UHjqqk7aUhIy-35" value="" style="ellipse;whiteSpace=wrap;html=1;aspect=fixed;fillColor=#f5f5f5;gradientColor=#b3b3b3;strokeColor=#666666;" vertex="1" parent="1">
          <mxGeometry x="140" y="500" width="30" height="30" as="geometry" />
        </mxCell>
        <mxCell id="ejNQdpF5UHjqqk7aUhIy-36" value="" style="ellipse;whiteSpace=wrap;html=1;aspect=fixed;fillColor=#f5f5f5;gradientColor=#b3b3b3;strokeColor=#666666;" vertex="1" parent="1">
          <mxGeometry x="140" y="540" width="30" height="30" as="geometry" />
        </mxCell>
        <mxCell id="ejNQdpF5UHjqqk7aUhIy-37" value="" style="ellipse;whiteSpace=wrap;html=1;aspect=fixed;fillColor=#f5f5f5;gradientColor=#b3b3b3;strokeColor=#666666;" vertex="1" parent="1">
          <mxGeometry x="140" y="584.5" width="30" height="30" as="geometry" />
        </mxCell>
        <mxCell id="ejNQdpF5UHjqqk7aUhIy-38" value="" style="ellipse;whiteSpace=wrap;html=1;aspect=fixed;fillColor=#f5f5f5;gradientColor=#b3b3b3;strokeColor=#666666;" vertex="1" parent="1">
          <mxGeometry x="140" y="680" width="30" height="30" as="geometry" />
        </mxCell>
        <mxCell id="ejNQdpF5UHjqqk7aUhIy-39" value="" style="ellipse;whiteSpace=wrap;html=1;aspect=fixed;fillColor=#f5f5f5;gradientColor=#b3b3b3;strokeColor=#666666;" vertex="1" parent="1">
          <mxGeometry x="140" y="730" width="30" height="30" as="geometry" />
        </mxCell>
        <mxCell id="ejNQdpF5UHjqqk7aUhIy-40" value="" style="ellipse;whiteSpace=wrap;html=1;aspect=fixed;fillColor=#f5f5f5;gradientColor=#b3b3b3;strokeColor=#666666;" vertex="1" parent="1">
          <mxGeometry x="140" y="770" width="30" height="30" as="geometry" />
        </mxCell>
        <mxCell id="ejNQdpF5UHjqqk7aUhIy-41" value="" style="ellipse;whiteSpace=wrap;html=1;aspect=fixed;fillColor=#f5f5f5;gradientColor=#b3b3b3;strokeColor=#666666;" vertex="1" parent="1">
          <mxGeometry x="200" y="650" width="30" height="30" as="geometry" />
        </mxCell>
        <mxCell id="ejNQdpF5UHjqqk7aUhIy-42" value="" style="ellipse;whiteSpace=wrap;html=1;aspect=fixed;fillColor=#f5f5f5;gradientColor=#b3b3b3;strokeColor=#666666;" vertex="1" parent="1">
          <mxGeometry x="200" y="690" width="30" height="30" as="geometry" />
        </mxCell>
        <mxCell id="ejNQdpF5UHjqqk7aUhIy-43" value="" style="ellipse;whiteSpace=wrap;html=1;aspect=fixed;fillColor=#f5f5f5;gradientColor=#b3b3b3;strokeColor=#666666;" vertex="1" parent="1">
          <mxGeometry x="200" y="734.5" width="30" height="30" as="geometry" />
        </mxCell>
        <mxCell id="ejNQdpF5UHjqqk7aUhIy-44" value="" style="ellipse;whiteSpace=wrap;html=1;aspect=fixed;fillColor=#f5f5f5;gradientColor=#b3b3b3;strokeColor=#666666;" vertex="1" parent="1">
          <mxGeometry x="200" y="510" width="30" height="30" as="geometry" />
        </mxCell>
        <mxCell id="ejNQdpF5UHjqqk7aUhIy-45" value="" style="ellipse;whiteSpace=wrap;html=1;aspect=fixed;fillColor=#f5f5f5;gradientColor=#b3b3b3;strokeColor=#666666;" vertex="1" parent="1">
          <mxGeometry x="200" y="550" width="30" height="30" as="geometry" />
        </mxCell>
        <mxCell id="ejNQdpF5UHjqqk7aUhIy-46" value="" style="ellipse;whiteSpace=wrap;html=1;aspect=fixed;fillColor=#f5f5f5;gradientColor=#b3b3b3;strokeColor=#666666;" vertex="1" parent="1">
          <mxGeometry x="200" y="594.5" width="30" height="30" as="geometry" />
        </mxCell>
        <mxCell id="ejNQdpF5UHjqqk7aUhIy-47" value="" style="endArrow=none;dashed=1;html=1;dashPattern=1 3;strokeWidth=2;rounded=0;" edge="1" parent="1">
          <mxGeometry width="50" height="50" relative="1" as="geometry">
            <mxPoint x="150" y="669.5" as="sourcePoint" />
            <mxPoint x="150" y="624.5" as="targetPoint" />
          </mxGeometry>
        </mxCell>
        <mxCell id="ejNQdpF5UHjqqk7aUhIy-49" value="" style="endArrow=none;dashed=1;html=1;dashPattern=1 3;strokeWidth=2;rounded=0;entryX=1;entryY=1;entryDx=0;entryDy=0;exitX=0;exitY=0;exitDx=0;exitDy=0;" edge="1" parent="1" source="ejNQdpF5UHjqqk7aUhIy-46" target="ejNQdpF5UHjqqk7aUhIy-36">
          <mxGeometry width="50" height="50" relative="1" as="geometry">
            <mxPoint x="170" y="630" as="sourcePoint" />
            <mxPoint x="200" y="640" as="targetPoint" />
          </mxGeometry>
        </mxCell>
        <mxCell id="ejNQdpF5UHjqqk7aUhIy-50" value="" style="endArrow=none;dashed=1;html=1;dashPattern=1 3;strokeWidth=2;rounded=0;" edge="1" parent="1">
          <mxGeometry width="50" height="50" relative="1" as="geometry">
            <mxPoint x="215" y="650" as="sourcePoint" />
            <mxPoint x="214.5" y="624.5" as="targetPoint" />
          </mxGeometry>
        </mxCell>
        <mxCell id="ejNQdpF5UHjqqk7aUhIy-51" value="" style="endArrow=none;dashed=1;html=1;dashPattern=1 3;strokeWidth=2;rounded=0;exitX=-0.078;exitY=0.778;exitDx=0;exitDy=0;exitPerimeter=0;entryX=1;entryY=0;entryDx=0;entryDy=0;" edge="1" parent="1" source="ejNQdpF5UHjqqk7aUhIy-41" target="ejNQdpF5UHjqqk7aUhIy-39">
          <mxGeometry width="50" height="50" relative="1" as="geometry">
            <mxPoint x="40" y="680" as="sourcePoint" />
            <mxPoint x="90" y="630" as="targetPoint" />
          </mxGeometry>
        </mxCell>
        <mxCell id="ejNQdpF5UHjqqk7aUhIy-52" value="" style="endArrow=none;dashed=1;html=1;dashPattern=1 3;strokeWidth=2;rounded=0;" edge="1" parent="1">
          <mxGeometry width="50" height="50" relative="1" as="geometry">
            <mxPoint x="160" y="640" as="sourcePoint" />
            <mxPoint x="200" y="640" as="targetPoint" />
          </mxGeometry>
        </mxCell>
        <mxCell id="ejNQdpF5UHjqqk7aUhIy-58" value="" style="ellipse;whiteSpace=wrap;html=1;aspect=fixed;fillColor=#f8cecc;gradientColor=#ea6b66;strokeColor=#b85450;" vertex="1" parent="1">
          <mxGeometry x="300" y="555.5" width="30" height="30" as="geometry" />
        </mxCell>
        <mxCell id="ejNQdpF5UHjqqk7aUhIy-59" value="" style="ellipse;whiteSpace=wrap;html=1;aspect=fixed;fillColor=#f8cecc;gradientColor=#ea6b66;strokeColor=#b85450;" vertex="1" parent="1">
          <mxGeometry x="300" y="600" width="30" height="30" as="geometry" />
        </mxCell>
        <mxCell id="ejNQdpF5UHjqqk7aUhIy-60" value="" style="ellipse;whiteSpace=wrap;html=1;aspect=fixed;fillColor=#f8cecc;gradientColor=#ea6b66;strokeColor=#b85450;" vertex="1" parent="1">
          <mxGeometry x="300" y="660" width="30" height="30" as="geometry" />
        </mxCell>
        <mxCell id="ejNQdpF5UHjqqk7aUhIy-61" value="" style="ellipse;whiteSpace=wrap;html=1;aspect=fixed;fillColor=#f8cecc;gradientColor=#ea6b66;strokeColor=#b85450;" vertex="1" parent="1">
          <mxGeometry x="300" y="704.5" width="30" height="30" as="geometry" />
        </mxCell>
        <mxCell id="ejNQdpF5UHjqqk7aUhIy-65" value="ReLu" style="text;html=1;align=center;verticalAlign=middle;resizable=0;points=[];autosize=1;strokeColor=none;fillColor=none;" vertex="1" parent="1">
          <mxGeometry x="240" y="600" width="50" height="30" as="geometry" />
        </mxCell>
        <mxCell id="ejNQdpF5UHjqqk7aUhIy-67" value="" style="endArrow=classic;html=1;rounded=0;" edge="1" parent="1">
          <mxGeometry width="50" height="50" relative="1" as="geometry">
            <mxPoint x="230" y="634.5" as="sourcePoint" />
            <mxPoint x="290" y="634.5" as="targetPoint" />
          </mxGeometry>
        </mxCell>
        <mxCell id="ejNQdpF5UHjqqk7aUhIy-69" value="" style="endArrow=none;dashed=1;html=1;dashPattern=1 3;strokeWidth=2;rounded=0;entryX=0.5;entryY=1;entryDx=0;entryDy=0;exitX=0.5;exitY=0;exitDx=0;exitDy=0;" edge="1" parent="1" source="ejNQdpF5UHjqqk7aUhIy-60" target="ejNQdpF5UHjqqk7aUhIy-59">
          <mxGeometry width="50" height="50" relative="1" as="geometry">
            <mxPoint x="225" y="660" as="sourcePoint" />
            <mxPoint x="224.5" y="634.5" as="targetPoint" />
          </mxGeometry>
        </mxCell>
        <mxCell id="ejNQdpF5UHjqqk7aUhIy-72" value="" style="endArrow=classic;html=1;rounded=0;" edge="1" parent="1">
          <mxGeometry width="50" height="50" relative="1" as="geometry">
            <mxPoint x="400" y="638" as="sourcePoint" />
            <mxPoint x="460" y="638" as="targetPoint" />
          </mxGeometry>
        </mxCell>
        <mxCell id="ejNQdpF5UHjqqk7aUhIy-73" value="Softmax" style="text;html=1;align=center;verticalAlign=middle;resizable=0;points=[];autosize=1;strokeColor=none;fillColor=none;" vertex="1" parent="1">
          <mxGeometry x="390" y="614.5" width="70" height="30" as="geometry" />
        </mxCell>
        <mxCell id="ejNQdpF5UHjqqk7aUhIy-74" value="fc2" style="text;html=1;align=center;verticalAlign=middle;resizable=0;points=[];autosize=1;strokeColor=none;fillColor=none;" vertex="1" parent="1">
          <mxGeometry x="295" y="509" width="40" height="30" as="geometry" />
        </mxCell>
        <mxCell id="ejNQdpF5UHjqqk7aUhIy-75" value="fc1" style="text;html=1;align=center;verticalAlign=middle;resizable=0;points=[];autosize=1;strokeColor=none;fillColor=none;" vertex="1" parent="1">
          <mxGeometry x="170" y="470" width="40" height="30" as="geometry" />
        </mxCell>
        <mxCell id="ejNQdpF5UHjqqk7aUhIy-76" value="" style="ellipse;whiteSpace=wrap;html=1;aspect=fixed;fillColor=#f8cecc;gradientColor=#ea6b66;strokeColor=#b85450;" vertex="1" parent="1">
          <mxGeometry x="360" y="600" width="30" height="30" as="geometry" />
        </mxCell>
        <mxCell id="ejNQdpF5UHjqqk7aUhIy-78" value="" style="ellipse;whiteSpace=wrap;html=1;aspect=fixed;fillColor=#f8cecc;gradientColor=#ea6b66;strokeColor=#b85450;" vertex="1" parent="1">
          <mxGeometry x="360" y="660" width="30" height="30" as="geometry" />
        </mxCell>
        <mxCell id="ejNQdpF5UHjqqk7aUhIy-80" value="" style="endArrow=none;dashed=1;html=1;dashPattern=1 3;strokeWidth=2;rounded=0;entryX=0.5;entryY=1;entryDx=0;entryDy=0;exitX=0.5;exitY=0;exitDx=0;exitDy=0;" edge="1" parent="1" source="ejNQdpF5UHjqqk7aUhIy-78">
          <mxGeometry width="50" height="50" relative="1" as="geometry">
            <mxPoint x="285" y="660" as="sourcePoint" />
            <mxPoint x="375" y="630" as="targetPoint" />
          </mxGeometry>
        </mxCell>
        <mxCell id="ejNQdpF5UHjqqk7aUhIy-82" value="" style="endArrow=classic;html=1;rounded=0;entryX=0;entryY=0.5;entryDx=0;entryDy=0;" edge="1" parent="1" target="ejNQdpF5UHjqqk7aUhIy-44">
          <mxGeometry width="50" height="50" relative="1" as="geometry">
            <mxPoint x="170" y="520" as="sourcePoint" />
            <mxPoint x="220" y="470" as="targetPoint" />
          </mxGeometry>
        </mxCell>
        <mxCell id="ejNQdpF5UHjqqk7aUhIy-83" value="" style="endArrow=classic;html=1;rounded=0;exitX=1;exitY=0.5;exitDx=0;exitDy=0;entryX=0;entryY=0.5;entryDx=0;entryDy=0;" edge="1" parent="1" source="ejNQdpF5UHjqqk7aUhIy-36" target="ejNQdpF5UHjqqk7aUhIy-44">
          <mxGeometry width="50" height="50" relative="1" as="geometry">
            <mxPoint x="140" y="530" as="sourcePoint" />
            <mxPoint x="190" y="480" as="targetPoint" />
          </mxGeometry>
        </mxCell>
        <mxCell id="ejNQdpF5UHjqqk7aUhIy-85" value="" style="endArrow=classic;html=1;rounded=0;exitX=1;exitY=0.5;exitDx=0;exitDy=0;entryX=0;entryY=0.5;entryDx=0;entryDy=0;" edge="1" parent="1" source="ejNQdpF5UHjqqk7aUhIy-36" target="ejNQdpF5UHjqqk7aUhIy-45">
          <mxGeometry width="50" height="50" relative="1" as="geometry">
            <mxPoint x="140" y="530" as="sourcePoint" />
            <mxPoint x="190" y="480" as="targetPoint" />
          </mxGeometry>
        </mxCell>
        <mxCell id="ejNQdpF5UHjqqk7aUhIy-86" value="" style="endArrow=classic;html=1;rounded=0;entryX=0;entryY=0.5;entryDx=0;entryDy=0;exitX=1;exitY=1;exitDx=0;exitDy=0;" edge="1" parent="1" source="ejNQdpF5UHjqqk7aUhIy-35" target="ejNQdpF5UHjqqk7aUhIy-45">
          <mxGeometry width="50" height="50" relative="1" as="geometry">
            <mxPoint x="170" y="515" as="sourcePoint" />
            <mxPoint x="90" y="550" as="targetPoint" />
          </mxGeometry>
        </mxCell>
        <mxCell id="ejNQdpF5UHjqqk7aUhIy-87" value="" style="endArrow=none;dashed=1;html=1;dashPattern=1 3;strokeWidth=2;rounded=0;exitX=-0.078;exitY=0.778;exitDx=0;exitDy=0;exitPerimeter=0;entryX=1;entryY=0;entryDx=0;entryDy=0;" edge="1" parent="1">
          <mxGeometry width="50" height="50" relative="1" as="geometry">
            <mxPoint x="202" y="720" as="sourcePoint" />
            <mxPoint x="170" y="781" as="targetPoint" />
          </mxGeometry>
        </mxCell>
        <mxCell id="ejNQdpF5UHjqqk7aUhIy-88" value="" style="endArrow=classic;html=1;rounded=0;exitX=1;exitY=0.5;exitDx=0;exitDy=0;entryX=0;entryY=0.5;entryDx=0;entryDy=0;" edge="1" parent="1" source="ejNQdpF5UHjqqk7aUhIy-58" target="ejNQdpF5UHjqqk7aUhIy-76">
          <mxGeometry width="50" height="50" relative="1" as="geometry">
            <mxPoint x="370" y="570" as="sourcePoint" />
            <mxPoint x="420" y="520" as="targetPoint" />
          </mxGeometry>
        </mxCell>
        <mxCell id="ejNQdpF5UHjqqk7aUhIy-89" value="" style="endArrow=classic;html=1;rounded=0;entryX=0;entryY=0.5;entryDx=0;entryDy=0;" edge="1" parent="1" target="ejNQdpF5UHjqqk7aUhIy-76">
          <mxGeometry width="50" height="50" relative="1" as="geometry">
            <mxPoint x="330" y="610" as="sourcePoint" />
            <mxPoint x="380" y="560" as="targetPoint" />
          </mxGeometry>
        </mxCell>
        <mxCell id="ejNQdpF5UHjqqk7aUhIy-90" value="" style="endArrow=classic;html=1;rounded=0;exitX=1;exitY=0.5;exitDx=0;exitDy=0;entryX=0;entryY=1;entryDx=0;entryDy=0;" edge="1" parent="1" source="ejNQdpF5UHjqqk7aUhIy-61" target="ejNQdpF5UHjqqk7aUhIy-78">
          <mxGeometry width="50" height="50" relative="1" as="geometry">
            <mxPoint x="380" y="760" as="sourcePoint" />
            <mxPoint x="430" y="710" as="targetPoint" />
          </mxGeometry>
        </mxCell>
        <mxCell id="ejNQdpF5UHjqqk7aUhIy-91" value="" style="endArrow=classic;html=1;rounded=0;exitX=1;exitY=0.5;exitDx=0;exitDy=0;entryX=0;entryY=0.5;entryDx=0;entryDy=0;" edge="1" parent="1" source="ejNQdpF5UHjqqk7aUhIy-60" target="ejNQdpF5UHjqqk7aUhIy-78">
          <mxGeometry width="50" height="50" relative="1" as="geometry">
            <mxPoint x="370" y="760" as="sourcePoint" />
            <mxPoint x="420" y="710" as="targetPoint" />
          </mxGeometry>
        </mxCell>
        <mxCell id="ejNQdpF5UHjqqk7aUhIy-92" value="" style="endArrow=classic;html=1;rounded=0;exitX=1;exitY=0.5;exitDx=0;exitDy=0;entryX=0;entryY=0;entryDx=0;entryDy=0;" edge="1" parent="1" source="ejNQdpF5UHjqqk7aUhIy-58" target="ejNQdpF5UHjqqk7aUhIy-78">
          <mxGeometry width="50" height="50" relative="1" as="geometry">
            <mxPoint x="380" y="780" as="sourcePoint" />
            <mxPoint x="430" y="730" as="targetPoint" />
          </mxGeometry>
        </mxCell>
        <mxCell id="ejNQdpF5UHjqqk7aUhIy-93" value="" style="endArrow=classic;html=1;rounded=0;exitX=1;exitY=0.5;exitDx=0;exitDy=0;entryX=0;entryY=0;entryDx=0;entryDy=0;" edge="1" parent="1" source="ejNQdpF5UHjqqk7aUhIy-59" target="ejNQdpF5UHjqqk7aUhIy-78">
          <mxGeometry width="50" height="50" relative="1" as="geometry">
            <mxPoint x="450" y="770" as="sourcePoint" />
            <mxPoint x="500" y="720" as="targetPoint" />
          </mxGeometry>
        </mxCell>
        <mxCell id="ejNQdpF5UHjqqk7aUhIy-94" value="" style="endArrow=classic;html=1;rounded=0;exitX=1;exitY=0.5;exitDx=0;exitDy=0;entryX=0;entryY=1;entryDx=0;entryDy=0;" edge="1" parent="1" source="ejNQdpF5UHjqqk7aUhIy-60" target="ejNQdpF5UHjqqk7aUhIy-76">
          <mxGeometry width="50" height="50" relative="1" as="geometry">
            <mxPoint x="450" y="780" as="sourcePoint" />
            <mxPoint x="500" y="730" as="targetPoint" />
          </mxGeometry>
        </mxCell>
        <mxCell id="ejNQdpF5UHjqqk7aUhIy-95" value="" style="endArrow=classic;html=1;rounded=0;exitX=1;exitY=0.5;exitDx=0;exitDy=0;entryX=0;entryY=0.5;entryDx=0;entryDy=0;" edge="1" parent="1" source="ejNQdpF5UHjqqk7aUhIy-61" target="ejNQdpF5UHjqqk7aUhIy-76">
          <mxGeometry width="50" height="50" relative="1" as="geometry">
            <mxPoint x="360" y="770" as="sourcePoint" />
            <mxPoint x="410" y="720" as="targetPoint" />
          </mxGeometry>
        </mxCell>
        <mxCell id="ejNQdpF5UHjqqk7aUhIy-96" value="Output" style="text;html=1;align=center;verticalAlign=middle;resizable=0;points=[];autosize=1;strokeColor=none;fillColor=none;" vertex="1" parent="1">
          <mxGeometry x="460" y="624.5" width="60" height="30" as="geometry" />
        </mxCell>
      </root>
    </mxGraphModel>
  </diagram>
</mxfile>
